<?xml version="1.0" encoding="UTF-8" standalone="no"?>
<!DOCTYPE svg PUBLIC "-//W3C//DTD SVG 1.1//EN"
 "http://www.w3.org/Graphics/SVG/1.1/DTD/svg11.dtd">
<!-- Generated by graphviz version 12.1.2 (20240928.0832)
 -->
<!-- Title: public.GroupPolicyPermissions Pages: 1 -->
<svg width="1369pt" height="2758pt"
 viewBox="0.00 0.00 1369.12 2758.00" xmlns="http://www.w3.org/2000/svg" xmlns:xlink="http://www.w3.org/1999/xlink">
<g id="graph0" class="graph" transform="scale(1 1) rotate(0) translate(4 2754)">
<title>public.GroupPolicyPermissions</title>
<polygon fill="white" stroke="none" points="-4,4 -4,-2754 1365.12,-2754 1365.12,4 -4,4"/>
<!-- public.GroupPolicyPermissions -->
<g id="node1" class="node">
<title>public.GroupPolicyPermissions</title>
<polygon fill="#efefef" stroke="none" points="534.86,-2668.2 534.86,-2703.8 901.85,-2703.8 901.85,-2668.2 534.86,-2668.2"/>
<polygon fill="none" stroke="black" points="534.86,-2668.2 534.86,-2703.8 901.85,-2703.8 901.85,-2668.2 534.86,-2668.2"/>
<text text-anchor="start" x="541.86" y="-2681.6" font-family="Arial Bold" font-size="18.00">public.GroupPolicyPermissions</text>
<text text-anchor="start" x="770.36" y="-2681.6" font-family="Arial" font-size="14.00">    </text>
<text text-anchor="start" x="801.48" y="-2681.6" font-family="Arial" font-size="14.00" fill="#666666">[BASE TABLE]</text>
<polygon fill="none" stroke="black" points="534.86,-2637.4 534.86,-2668.2 901.85,-2668.2 901.85,-2637.4 534.86,-2637.4"/>
<text text-anchor="start" x="541.86" y="-2649.6" font-family="Arial" font-size="14.00">id </text>
<text text-anchor="start" x="556.65" y="-2649.6" font-family="Arial" font-size="14.00" fill="#666666">[text]</text>
<polygon fill="none" stroke="black" points="534.86,-2606.6 534.86,-2637.4 901.85,-2637.4 901.85,-2606.6 534.86,-2606.6"/>
<text text-anchor="start" x="541.86" y="-2618.8" font-family="Arial" font-size="14.00">createdAt </text>
<text text-anchor="start" x="605.68" y="-2618.8" font-family="Arial" font-size="14.00" fill="#666666">[timestamp(3) without time zone]</text>
<polygon fill="none" stroke="black" points="534.86,-2575.8 534.86,-2606.6 901.85,-2606.6 901.85,-2575.8 534.86,-2575.8"/>
<text text-anchor="start" x="541.86" y="-2588" font-family="Arial" font-size="14.00">updatedAt </text>
<text text-anchor="start" x="609.59" y="-2588" font-family="Arial" font-size="14.00" fill="#666666">[timestamp(3) without time zone]</text>
<polygon fill="none" stroke="black" points="534.86,-2545 534.86,-2575.8 901.85,-2575.8 901.85,-2545 534.86,-2545"/>
<text text-anchor="start" x="541.86" y="-2557.2" font-family="Arial" font-size="14.00">groupPolicyId </text>
<text text-anchor="start" x="630.58" y="-2557.2" font-family="Arial" font-size="14.00" fill="#666666">[text]</text>
<polygon fill="none" stroke="black" points="534.86,-2514.2 534.86,-2545 901.85,-2545 901.85,-2514.2 534.86,-2514.2"/>
<text text-anchor="start" x="541.86" y="-2526.4" font-family="Arial" font-size="14.00">orgId </text>
<text text-anchor="start" x="577.66" y="-2526.4" font-family="Arial" font-size="14.00" fill="#666666">[text]</text>
<polygon fill="none" stroke="black" points="534.86,-2483.4 534.86,-2514.2 901.85,-2514.2 901.85,-2483.4 534.86,-2483.4"/>
<text text-anchor="start" x="541.86" y="-2495.6" font-family="Arial" font-size="14.00">canViewBasicCoverage </text>
<text text-anchor="start" x="693.61" y="-2495.6" font-family="Arial" font-size="14.00" fill="#666666">[boolean]</text>
<polygon fill="none" stroke="black" points="534.86,-2452.6 534.86,-2483.4 901.85,-2483.4 901.85,-2452.6 534.86,-2452.6"/>
<text text-anchor="start" x="541.86" y="-2464.8" font-family="Arial" font-size="14.00">canViewFullCoverage </text>
<text text-anchor="start" x="681.93" y="-2464.8" font-family="Arial" font-size="14.00" fill="#666666">[boolean]</text>
<polygon fill="none" stroke="black" points="534.86,-2421.8 534.86,-2452.6 901.85,-2452.6 901.85,-2421.8 534.86,-2421.8"/>
<text text-anchor="start" x="541.86" y="-2434" font-family="Arial" font-size="14.00">canManageCoverage </text>
<text text-anchor="start" x="679.62" y="-2434" font-family="Arial" font-size="14.00" fill="#666666">[boolean]</text>
<polygon fill="none" stroke="black" points="534.86,-2391 534.86,-2421.8 901.85,-2421.8 901.85,-2391 534.86,-2391"/>
<text text-anchor="start" x="541.86" y="-2403.2" font-family="Arial" font-size="14.00">canViewCommunications </text>
<text text-anchor="start" x="702.93" y="-2403.2" font-family="Arial" font-size="14.00" fill="#666666">[boolean]</text>
<polygon fill="none" stroke="black" points="534.86,-2360.2 534.86,-2391 901.85,-2391 901.85,-2360.2 534.86,-2360.2"/>
<text text-anchor="start" x="541.86" y="-2372.4" font-family="Arial" font-size="14.00">canEditCoverage </text>
<text text-anchor="start" x="653.15" y="-2372.4" font-family="Arial" font-size="14.00" fill="#666666">[boolean]</text>
<polygon fill="none" stroke="black" points="534.86,-2329.4 534.86,-2360.2 901.85,-2360.2 901.85,-2329.4 534.86,-2329.4"/>
<text text-anchor="start" x="541.86" y="-2341.6" font-family="Arial" font-size="14.00">canRequestCashPayCard </text>
<text text-anchor="start" x="707.62" y="-2341.6" font-family="Arial" font-size="14.00" fill="#666666">[boolean]</text>
<polygon fill="none" stroke="black" points="534.86,-2298.6 534.86,-2329.4 901.85,-2329.4 901.85,-2298.6 534.86,-2298.6"/>
<text text-anchor="start" x="541.86" y="-2310.8" font-family="Arial" font-size="14.00">canSubmitFees </text>
<text text-anchor="start" x="643.02" y="-2310.8" font-family="Arial" font-size="14.00" fill="#666666">[boolean]</text>
<polygon fill="none" stroke="black" points="534.86,-2267.8 534.86,-2298.6 901.85,-2298.6 901.85,-2267.8 534.86,-2267.8"/>
<text text-anchor="start" x="541.86" y="-2280" font-family="Arial" font-size="14.00">canAssignForms </text>
<text text-anchor="start" x="650.01" y="-2280" font-family="Arial" font-size="14.00" fill="#666666">[boolean]</text>
<polygon fill="none" stroke="black" points="534.86,-2237 534.86,-2267.8 901.85,-2267.8 901.85,-2237 534.86,-2237"/>
<text text-anchor="start" x="541.86" y="-2249.2" font-family="Arial" font-size="14.00">canViewBasicGroup </text>
<text text-anchor="start" x="671.81" y="-2249.2" font-family="Arial" font-size="14.00" fill="#666666">[boolean]</text>
<polygon fill="none" stroke="black" points="534.86,-2206.2 534.86,-2237 901.85,-2237 901.85,-2206.2 534.86,-2206.2"/>
<text text-anchor="start" x="541.86" y="-2218.4" font-family="Arial" font-size="14.00">canManageGroup </text>
<text text-anchor="start" x="657.83" y="-2218.4" font-family="Arial" font-size="14.00" fill="#666666">[boolean]</text>
<polygon fill="none" stroke="black" points="534.86,-2175.4 534.86,-2206.2 901.85,-2206.2 901.85,-2175.4 534.86,-2175.4"/>
<text text-anchor="start" x="541.86" y="-2187.6" font-family="Arial" font-size="14.00">canViewPrecerts </text>
<text text-anchor="start" x="650.79" y="-2187.6" font-family="Arial" font-size="14.00" fill="#666666">[boolean]</text>
<polygon fill="none" stroke="black" points="534.86,-2144.6 534.86,-2175.4 901.85,-2175.4 901.85,-2144.6 534.86,-2144.6"/>
<text text-anchor="start" x="541.86" y="-2156.8" font-family="Arial" font-size="14.00">canViewGroupClaims </text>
<text text-anchor="start" x="680.36" y="-2156.8" font-family="Arial" font-size="14.00" fill="#666666">[boolean]</text>
<polygon fill="none" stroke="black" points="534.86,-2113.8 534.86,-2144.6 901.85,-2144.6 901.85,-2113.8 534.86,-2113.8"/>
<text text-anchor="start" x="541.86" y="-2126" font-family="Arial" font-size="14.00">canViewCashPay </text>
<text text-anchor="start" x="655.48" y="-2126" font-family="Arial" font-size="14.00" fill="#666666">[boolean]</text>
<polygon fill="none" stroke="black" points="534.86,-2083 534.86,-2113.8 901.85,-2113.8 901.85,-2083 534.86,-2083"/>
<text text-anchor="start" x="541.86" y="-2095.2" font-family="Arial" font-size="14.00">canViewMembers </text>
<text text-anchor="start" x="657.01" y="-2095.2" font-family="Arial" font-size="14.00" fill="#666666">[boolean]</text>
<polygon fill="none" stroke="black" points="534.86,-2052.2 534.86,-2083 901.85,-2083 901.85,-2052.2 534.86,-2052.2"/>
<text text-anchor="start" x="541.86" y="-2064.4" font-family="Arial" font-size="14.00">canViewPlan </text>
<text text-anchor="start" x="626.69" y="-2064.4" font-family="Arial" font-size="14.00" fill="#666666">[boolean]</text>
<polygon fill="none" stroke="black" points="534.86,-2021.4 534.86,-2052.2 901.85,-2052.2 901.85,-2021.4 534.86,-2021.4"/>
<text text-anchor="start" x="541.86" y="-2033.6" font-family="Arial" font-size="14.00">canManagePlan </text>
<text text-anchor="start" x="646.94" y="-2033.6" font-family="Arial" font-size="14.00" fill="#666666">[boolean]</text>
<polygon fill="none" stroke="black" points="534.86,-1990.6 534.86,-2021.4 901.85,-2021.4 901.85,-1990.6 534.86,-1990.6"/>
<text text-anchor="start" x="541.86" y="-2002.8" font-family="Arial" font-size="14.00">canViewClaims </text>
<text text-anchor="start" x="641.45" y="-2002.8" font-family="Arial" font-size="14.00" fill="#666666">[boolean]</text>
<polygon fill="none" stroke="black" points="534.86,-1959.8 534.86,-1990.6 901.85,-1990.6 901.85,-1959.8 534.86,-1959.8"/>
<text text-anchor="start" x="541.86" y="-1972" font-family="Arial" font-size="14.00">canManageClaims </text>
<text text-anchor="start" x="661.7" y="-1972" font-family="Arial" font-size="14.00" fill="#666666">[boolean]</text>
<polygon fill="none" stroke="black" points="534.86,-1929 534.86,-1959.8 901.85,-1959.8 901.85,-1929 534.86,-1929"/>
<text text-anchor="start" x="541.86" y="-1941.2" font-family="Arial" font-size="14.00">canViewClaimAdjudication </text>
<text text-anchor="start" x="710.72" y="-1941.2" font-family="Arial" font-size="14.00" fill="#666666">[boolean]</text>
<polygon fill="none" stroke="black" points="534.86,-1898.2 534.86,-1929 901.85,-1929 901.85,-1898.2 534.86,-1898.2"/>
<text text-anchor="start" x="541.86" y="-1910.4" font-family="Arial" font-size="14.00">canUploadClaimAttachments </text>
<text text-anchor="start" x="726.28" y="-1910.4" font-family="Arial" font-size="14.00" fill="#666666">[boolean]</text>
<polygon fill="none" stroke="black" points="534.86,-1867.4 534.86,-1898.2 901.85,-1898.2 901.85,-1867.4 534.86,-1867.4"/>
<text text-anchor="start" x="541.86" y="-1879.6" font-family="Arial" font-size="14.00">canUploadClaimReceipts </text>
<text text-anchor="start" x="702.94" y="-1879.6" font-family="Arial" font-size="14.00" fill="#666666">[boolean]</text>
<polygon fill="none" stroke="black" points="534.86,-1836.6 534.86,-1867.4 901.85,-1867.4 901.85,-1836.6 534.86,-1836.6"/>
<text text-anchor="start" x="541.86" y="-1848.8" font-family="Arial" font-size="14.00">canViewFullCashCards </text>
<text text-anchor="start" x="691.26" y="-1848.8" font-family="Arial" font-size="14.00" fill="#666666">[boolean]</text>
<polygon fill="none" stroke="black" points="534.86,-1805.8 534.86,-1836.6 901.85,-1836.6 901.85,-1805.8 534.86,-1805.8"/>
<text text-anchor="start" x="541.86" y="-1818" font-family="Arial" font-size="14.00">canManageCashCards </text>
<text text-anchor="start" x="688.95" y="-1818" font-family="Arial" font-size="14.00" fill="#666666">[boolean]</text>
<polygon fill="none" stroke="black" points="534.86,-1775 534.86,-1805.8 901.85,-1805.8 901.85,-1775 534.86,-1775"/>
<text text-anchor="start" x="541.86" y="-1787.2" font-family="Arial" font-size="14.00">canViewCashCardClaims </text>
<text text-anchor="start" x="704.48" y="-1787.2" font-family="Arial" font-size="14.00" fill="#666666">[boolean]</text>
<polygon fill="none" stroke="black" points="534.86,-1744.2 534.86,-1775 901.85,-1775 901.85,-1744.2 534.86,-1744.2"/>
<text text-anchor="start" x="541.86" y="-1756.4" font-family="Arial" font-size="14.00">canViewCashCardTransactions </text>
<text text-anchor="start" x="741.84" y="-1756.4" font-family="Arial" font-size="14.00" fill="#666666">[boolean]</text>
<polygon fill="none" stroke="black" points="534.86,-1713.4 534.86,-1744.2 901.85,-1744.2 901.85,-1713.4 534.86,-1713.4"/>
<text text-anchor="start" x="541.86" y="-1725.6" font-family="Arial" font-size="14.00">canViewForms </text>
<text text-anchor="start" x="638.33" y="-1725.6" font-family="Arial" font-size="14.00" fill="#666666">[boolean]</text>
<polygon fill="none" stroke="black" points="534.86,-1682.6 534.86,-1713.4 901.85,-1713.4 901.85,-1682.6 534.86,-1682.6"/>
<text text-anchor="start" x="541.86" y="-1694.8" font-family="Arial" font-size="14.00">canSubmitForms </text>
<text text-anchor="start" x="651.56" y="-1694.8" font-family="Arial" font-size="14.00" fill="#666666">[boolean]</text>
<polygon fill="none" stroke="black" points="534.86,-1651.8 534.86,-1682.6 901.85,-1682.6 901.85,-1651.8 534.86,-1651.8"/>
<text text-anchor="start" x="541.86" y="-1664" font-family="Arial" font-size="14.00">canViewCommunication </text>
<text text-anchor="start" x="695.93" y="-1664" font-family="Arial" font-size="14.00" fill="#666666">[boolean]</text>
<polygon fill="none" stroke="black" points="534.86,-1621 534.86,-1651.8 901.85,-1651.8 901.85,-1621 534.86,-1621"/>
<text text-anchor="start" x="541.86" y="-1633.2" font-family="Arial" font-size="14.00">canManageCommunication </text>
<text text-anchor="start" x="716.18" y="-1633.2" font-family="Arial" font-size="14.00" fill="#666666">[boolean]</text>
<polygon fill="none" stroke="black" points="534.86,-1590.2 534.86,-1621 901.85,-1621 901.85,-1590.2 534.86,-1590.2"/>
<text text-anchor="start" x="541.86" y="-1602.4" font-family="Arial" font-size="14.00">canManageEnrollmentRequests </text>
<text text-anchor="start" x="744.98" y="-1602.4" font-family="Arial" font-size="14.00" fill="#666666">[boolean]</text>
<polygon fill="none" stroke="black" points="534.86,-1559.4 534.86,-1590.2 901.85,-1590.2 901.85,-1559.4 534.86,-1559.4"/>
<text text-anchor="start" x="541.86" y="-1571.6" font-family="Arial" font-size="14.00">canViewPlanClaims </text>
<text text-anchor="start" x="669.47" y="-1571.6" font-family="Arial" font-size="14.00" fill="#666666">[boolean]</text>
<polygon fill="none" stroke="black" points="534.86,-1528.6 534.86,-1559.4 901.85,-1559.4 901.85,-1528.6 534.86,-1528.6"/>
<text text-anchor="start" x="541.86" y="-1540.8" font-family="Arial" font-size="14.00">canManagePlanClaims </text>
<text text-anchor="start" x="689.72" y="-1540.8" font-family="Arial" font-size="14.00" fill="#666666">[boolean]</text>
<polygon fill="none" stroke="black" points="534.86,-1497.8 534.86,-1528.6 901.85,-1528.6 901.85,-1497.8 534.86,-1497.8"/>
<text text-anchor="start" x="541.86" y="-1510" font-family="Arial" font-size="14.00">canSubmitCases </text>
<text text-anchor="start" x="651.58" y="-1510" font-family="Arial" font-size="14.00" fill="#666666">[boolean]</text>
<polygon fill="none" stroke="black" points="534.86,-1467 534.86,-1497.8 901.85,-1497.8 901.85,-1467 534.86,-1467"/>
<text text-anchor="start" x="541.86" y="-1479.2" font-family="Arial" font-size="14.00">canViewBenefitBundles </text>
<text text-anchor="start" x="692.85" y="-1479.2" font-family="Arial" font-size="14.00" fill="#666666">[boolean]</text>
<polygon fill="none" stroke="black" points="534.86,-1436.2 534.86,-1467 901.85,-1467 901.85,-1436.2 534.86,-1436.2"/>
<text text-anchor="start" x="541.86" y="-1448.4" font-family="Arial" font-size="14.00">canManageBenefitBundles </text>
<text text-anchor="start" x="713.1" y="-1448.4" font-family="Arial" font-size="14.00" fill="#666666">[boolean]</text>
<polygon fill="none" stroke="black" points="534.86,-1405.4 534.86,-1436.2 901.85,-1436.2 901.85,-1405.4 534.86,-1405.4"/>
<text text-anchor="start" x="541.86" y="-1417.6" font-family="Arial" font-size="14.00">canViewFullOnboarding </text>
<text text-anchor="start" x="694.39" y="-1417.6" font-family="Arial" font-size="14.00" fill="#666666">[boolean]</text>
<polygon fill="none" stroke="black" points="534.86,-1374.6 534.86,-1405.4 901.85,-1405.4 901.85,-1374.6 534.86,-1374.6"/>
<text text-anchor="start" x="541.86" y="-1386.8" font-family="Arial" font-size="14.00">canViewFullInvoices </text>
<text text-anchor="start" x="672.59" y="-1386.8" font-family="Arial" font-size="14.00" fill="#666666">[boolean]</text>
<polygon fill="none" stroke="black" points="534.86,-1343.8 534.86,-1374.6 901.85,-1374.6 901.85,-1343.8 534.86,-1343.8"/>
<text text-anchor="start" x="541.86" y="-1356" font-family="Arial" font-size="14.00">canViewVendorInvoices </text>
<text text-anchor="start" x="695.17" y="-1356" font-family="Arial" font-size="14.00" fill="#666666">[boolean]</text>
<polygon fill="none" stroke="black" points="534.86,-1313 534.86,-1343.8 901.85,-1343.8 901.85,-1313 534.86,-1313"/>
<text text-anchor="start" x="541.86" y="-1325.2" font-family="Arial" font-size="14.00">canViewBasicCashCards </text>
<text text-anchor="start" x="702.93" y="-1325.2" font-family="Arial" font-size="14.00" fill="#666666">[boolean]</text>
<polygon fill="none" stroke="black" points="534.86,-1282.2 534.86,-1313 901.85,-1313 901.85,-1282.2 534.86,-1282.2"/>
<text text-anchor="start" x="541.86" y="-1294.4" font-family="Arial" font-size="14.00">canManagePermissions </text>
<text text-anchor="start" x="695.16" y="-1294.4" font-family="Arial" font-size="14.00" fill="#666666">[boolean]</text>
<polygon fill="none" stroke="black" points="534.86,-1251.4 534.86,-1282.2 901.85,-1282.2 901.85,-1251.4 534.86,-1251.4"/>
<text text-anchor="start" x="541.86" y="-1263.6" font-family="Arial" font-size="14.00">canManageBanking </text>
<text text-anchor="start" x="669.51" y="-1263.6" font-family="Arial" font-size="14.00" fill="#666666">[boolean]</text>
<polygon fill="none" stroke="black" points="534.86,-1220.6 534.86,-1251.4 901.85,-1251.4 901.85,-1220.6 534.86,-1220.6"/>
<text text-anchor="start" x="541.86" y="-1232.8" font-family="Arial" font-size="14.00">canManageStoplossFilings </text>
<text text-anchor="start" x="713.07" y="-1232.8" font-family="Arial" font-size="14.00" fill="#666666">[boolean]</text>
<polygon fill="none" stroke="black" points="534.86,-1189.8 534.86,-1220.6 901.85,-1220.6 901.85,-1189.8 534.86,-1189.8"/>
<text text-anchor="start" x="541.86" y="-1202" font-family="Arial" font-size="14.00">canViewStoplossFilings </text>
<text text-anchor="start" x="692.82" y="-1202" font-family="Arial" font-size="14.00" fill="#666666">[boolean]</text>
<polygon fill="none" stroke="black" points="534.86,-1159 534.86,-1189.8 901.85,-1189.8 901.85,-1159 534.86,-1159"/>
<text text-anchor="start" x="541.86" y="-1171.2" font-family="Arial" font-size="14.00">canLoadAccumulators </text>
<text text-anchor="start" x="684.28" y="-1171.2" font-family="Arial" font-size="14.00" fill="#666666">[boolean]</text>
<polygon fill="none" stroke="black" points="534.86,-1128.2 534.86,-1159 901.85,-1159 901.85,-1128.2 534.86,-1128.2"/>
<text text-anchor="start" x="541.86" y="-1140.4" font-family="Arial" font-size="14.00">canViewJournals </text>
<text text-anchor="start" x="651.59" y="-1140.4" font-family="Arial" font-size="14.00" fill="#666666">[boolean]</text>
<polygon fill="none" stroke="black" points="534.86,-1097.4 534.86,-1128.2 901.85,-1128.2 901.85,-1097.4 534.86,-1097.4"/>
<text text-anchor="start" x="541.86" y="-1109.6" font-family="Arial" font-size="14.00">canManageJournals </text>
<text text-anchor="start" x="671.83" y="-1109.6" font-family="Arial" font-size="14.00" fill="#666666">[boolean]</text>
<polygon fill="none" stroke="black" points="534.86,-1066.6 534.86,-1097.4 901.85,-1097.4 901.85,-1066.6 534.86,-1066.6"/>
<text text-anchor="start" x="541.86" y="-1078.8" font-family="Arial" font-size="14.00">canApproveEnrollmentRequests </text>
<text text-anchor="start" x="746.53" y="-1078.8" font-family="Arial" font-size="14.00" fill="#666666">[boolean]</text>
<polygon fill="none" stroke="black" points="534.86,-1035.8 534.86,-1066.6 901.85,-1066.6 901.85,-1035.8 534.86,-1035.8"/>
<text text-anchor="start" x="541.86" y="-1048" font-family="Arial" font-size="14.00">canViewBanking </text>
<text text-anchor="start" x="649.26" y="-1048" font-family="Arial" font-size="14.00" fill="#666666">[boolean]</text>
<polygon fill="none" stroke="black" points="534.86,-1005 534.86,-1035.8 901.85,-1035.8 901.85,-1005 534.86,-1005"/>
<text text-anchor="start" x="541.86" y="-1017.2" font-family="Arial" font-size="14.00">canAdjudicateStoplossFilings </text>
<text text-anchor="start" x="727.86" y="-1017.2" font-family="Arial" font-size="14.00" fill="#666666">[boolean]</text>
<polygon fill="none" stroke="black" points="534.86,-974.2 534.86,-1005 901.85,-1005 901.85,-974.2 534.86,-974.2"/>
<text text-anchor="start" x="541.86" y="-986.4" font-family="Arial" font-size="14.00">canEditCoverageDates </text>
<text text-anchor="start" x="689.72" y="-986.4" font-family="Arial" font-size="14.00" fill="#666666">[boolean]</text>
<polygon fill="none" stroke="black" stroke-width="3" points="533.36,-972.7 533.36,-2705.3 903.35,-2705.3 903.35,-972.7 533.36,-972.7"/>
</g>
<!-- public.GroupPolicy -->
<g id="node2" class="node">
<title>public.GroupPolicy</title>
<polygon fill="#efefef" stroke="none" points="382.35,-813.2 382.35,-848.8 666.37,-848.8 666.37,-813.2 382.35,-813.2"/>
<polygon fill="none" stroke="black" points="382.35,-813.2 382.35,-848.8 666.37,-848.8 666.37,-813.2 382.35,-813.2"/>
<text text-anchor="start" x="391.37" y="-826.6" font-family="Arial Bold" font-size="18.00">public.GroupPolicy</text>
<text text-anchor="start" x="532.86" y="-826.6" font-family="Arial" font-size="14.00">    </text>
<text text-anchor="start" x="563.97" y="-826.6" font-family="Arial" font-size="14.00" fill="#666666">[BASE TABLE]</text>
<polygon fill="none" stroke="black" points="382.35,-782.4 382.35,-813.2 666.37,-813.2 666.37,-782.4 382.35,-782.4"/>
<text text-anchor="start" x="389.35" y="-794.6" font-family="Arial" font-size="14.00">id </text>
<text text-anchor="start" x="404.13" y="-794.6" font-family="Arial" font-size="14.00" fill="#666666">[text]</text>
<polygon fill="none" stroke="black" points="382.35,-751.6 382.35,-782.4 666.37,-782.4 666.37,-751.6 382.35,-751.6"/>
<text text-anchor="start" x="389.35" y="-763.8" font-family="Arial" font-size="14.00">createdAt </text>
<text text-anchor="start" x="453.16" y="-763.8" font-family="Arial" font-size="14.00" fill="#666666">[timestamp(3) without time zone]</text>
<polygon fill="none" stroke="black" points="382.35,-720.8 382.35,-751.6 666.37,-751.6 666.37,-720.8 382.35,-720.8"/>
<text text-anchor="start" x="389.35" y="-733" font-family="Arial" font-size="14.00">updatedAt </text>
<text text-anchor="start" x="457.07" y="-733" font-family="Arial" font-size="14.00" fill="#666666">[timestamp(3) without time zone]</text>
<polygon fill="none" stroke="black" points="382.35,-690 382.35,-720.8 666.37,-720.8 666.37,-690 382.35,-690"/>
<text text-anchor="start" x="389.35" y="-702.2" font-family="Arial" font-size="14.00">sponsorId </text>
<text text-anchor="start" x="454.72" y="-702.2" font-family="Arial" font-size="14.00" fill="#666666">[text]</text>
<polygon fill="none" stroke="black" points="382.35,-659.2 382.35,-690 666.37,-690 666.37,-659.2 382.35,-659.2"/>
<text text-anchor="start" x="389.35" y="-671.4" font-family="Arial" font-size="14.00">isBillable </text>
<text text-anchor="start" x="448.48" y="-671.4" font-family="Arial" font-size="14.00" fill="#666666">[boolean]</text>
<polygon fill="none" stroke="black" points="382.35,-628.4 382.35,-659.2 666.37,-659.2 666.37,-628.4 382.35,-628.4"/>
<text text-anchor="start" x="389.35" y="-640.6" font-family="Arial" font-size="14.00">endDate </text>
<text text-anchor="start" x="446.17" y="-640.6" font-family="Arial" font-size="14.00" fill="#666666">[text]</text>
<polygon fill="none" stroke="black" points="382.35,-597.6 382.35,-628.4 666.37,-628.4 666.37,-597.6 382.35,-597.6"/>
<text text-anchor="start" x="389.35" y="-609.8" font-family="Arial" font-size="14.00">startDate </text>
<text text-anchor="start" x="450.04" y="-609.8" font-family="Arial" font-size="14.00" fill="#666666">[text]</text>
<polygon fill="none" stroke="black" points="382.35,-566.8 382.35,-597.6 666.37,-597.6 666.37,-566.8 382.35,-566.8"/>
<text text-anchor="start" x="389.35" y="-579" font-family="Arial" font-size="14.00">groupNumber </text>
<text text-anchor="start" x="478.84" y="-579" font-family="Arial" font-size="14.00" fill="#666666">[text]</text>
<polygon fill="none" stroke="black" points="382.35,-536 382.35,-566.8 666.37,-566.8 666.37,-536 382.35,-536"/>
<text text-anchor="start" x="389.35" y="-548.2" font-family="Arial" font-size="14.00">externalFinancialAccountID </text>
<text text-anchor="start" x="563.66" y="-548.2" font-family="Arial" font-size="14.00" fill="#666666">[text]</text>
<polygon fill="none" stroke="black" points="382.35,-505.2 382.35,-536 666.37,-536 666.37,-505.2 382.35,-505.2"/>
<text text-anchor="start" x="389.35" y="-517.4" font-family="Arial" font-size="14.00">pastPolicyId </text>
<text text-anchor="start" x="468.72" y="-517.4" font-family="Arial" font-size="14.00" fill="#666666">[text]</text>
<polygon fill="none" stroke="black" points="382.35,-474.4 382.35,-505.2 666.37,-505.2 666.37,-474.4 382.35,-474.4"/>
<text text-anchor="start" x="389.35" y="-486.6" font-family="Arial" font-size="14.00">claimsFundType </text>
<text text-anchor="start" x="495.94" y="-486.6" font-family="Arial" font-size="14.00" fill="#666666">[&quot;BankAccountHolder&quot;]</text>
<polygon fill="none" stroke="black" points="382.35,-443.6 382.35,-474.4 666.37,-474.4 666.37,-443.6 382.35,-443.6"/>
<text text-anchor="start" x="389.35" y="-455.8" font-family="Arial" font-size="14.00">status </text>
<text text-anchor="start" x="430.59" y="-455.8" font-family="Arial" font-size="14.00" fill="#666666">[&quot;GroupPolicyStatus&quot;]</text>
<polygon fill="none" stroke="black" points="382.35,-412.8 382.35,-443.6 666.37,-443.6 666.37,-412.8 382.35,-412.8"/>
<text text-anchor="start" x="389.35" y="-425" font-family="Arial" font-size="14.00">isOnboarding </text>
<text text-anchor="start" x="476.51" y="-425" font-family="Arial" font-size="14.00" fill="#666666">[boolean]</text>
<polygon fill="none" stroke="black" points="382.35,-382 382.35,-412.8 666.37,-412.8 666.37,-382 382.35,-382"/>
<text text-anchor="start" x="389.35" y="-394.2" font-family="Arial" font-size="14.00">invoicePreference </text>
<text text-anchor="start" x="505.3" y="-394.2" font-family="Arial" font-size="14.00" fill="#666666">[&quot;InvoicePreference&quot;]</text>
<polygon fill="none" stroke="black" points="382.35,-351.2 382.35,-382 666.37,-382 666.37,-351.2 382.35,-351.2"/>
<text text-anchor="start" x="389.35" y="-363.4" font-family="Arial" font-size="14.00">willRenew </text>
<text text-anchor="start" x="456.26" y="-363.4" font-family="Arial" font-size="14.00" fill="#666666">[boolean]</text>
<polygon fill="none" stroke="black" points="382.35,-320.4 382.35,-351.2 666.37,-351.2 666.37,-320.4 382.35,-320.4"/>
<text text-anchor="start" x="389.35" y="-332.6" font-family="Arial" font-size="14.00">invoicingNotes </text>
<text text-anchor="start" x="484.28" y="-332.6" font-family="Arial" font-size="14.00" fill="#666666">[text]</text>
<polygon fill="none" stroke="black" points="382.35,-289.6 382.35,-320.4 666.37,-320.4 666.37,-289.6 382.35,-289.6"/>
<text text-anchor="start" x="389.35" y="-301.8" font-family="Arial" font-size="14.00">generationDay </text>
<text text-anchor="start" x="484.3" y="-301.8" font-family="Arial" font-size="14.00" fill="#666666">[integer]</text>
<polygon fill="none" stroke="black" points="382.35,-258.8 382.35,-289.6 666.37,-289.6 666.37,-258.8 382.35,-258.8"/>
<text text-anchor="start" x="389.35" y="-271" font-family="Arial" font-size="14.00">pullDay </text>
<text text-anchor="start" x="439.93" y="-271" font-family="Arial" font-size="14.00" fill="#666666">[integer]</text>
<polygon fill="none" stroke="black" points="382.35,-228 382.35,-258.8 666.37,-258.8 666.37,-228 382.35,-228"/>
<text text-anchor="start" x="389.35" y="-240.2" font-family="Arial" font-size="14.00">ledgerId </text>
<text text-anchor="start" x="443.83" y="-240.2" font-family="Arial" font-size="14.00" fill="#666666">[text]</text>
<polygon fill="none" stroke="black" points="382.35,-197.2 382.35,-228 666.37,-228 666.37,-197.2 382.35,-197.2"/>
<text text-anchor="start" x="389.35" y="-209.4" font-family="Arial" font-size="14.00">allowOutgoingPayments </text>
<text text-anchor="start" x="544.21" y="-209.4" font-family="Arial" font-size="14.00" fill="#666666">[boolean]</text>
<polygon fill="none" stroke="black" points="382.35,-166.4 382.35,-197.2 666.37,-197.2 666.37,-166.4 382.35,-166.4"/>
<text text-anchor="start" x="389.35" y="-178.6" font-family="Arial" font-size="14.00">autoPayClaims </text>
<text text-anchor="start" x="487.39" y="-178.6" font-family="Arial" font-size="14.00" fill="#666666">[boolean]</text>
<polygon fill="none" stroke="black" points="382.35,-135.6 382.35,-166.4 666.37,-166.4 666.37,-135.6 382.35,-135.6"/>
<text text-anchor="start" x="389.35" y="-147.8" font-family="Arial" font-size="14.00">cashBalanceThreshold </text>
<text text-anchor="start" x="535.66" y="-147.8" font-family="Arial" font-size="14.00" fill="#666666">[double precision]</text>
<polygon fill="none" stroke="black" points="382.35,-104.8 382.35,-135.6 666.37,-135.6 666.37,-104.8 382.35,-104.8"/>
<text text-anchor="start" x="389.35" y="-117" font-family="Arial" font-size="14.00">captiveId </text>
<text text-anchor="start" x="449.27" y="-117" font-family="Arial" font-size="14.00" fill="#666666">[text]</text>
<polygon fill="none" stroke="black" points="382.35,-74 382.35,-104.8 666.37,-104.8 666.37,-74 382.35,-74"/>
<text text-anchor="start" x="389.35" y="-86.2" font-family="Arial" font-size="14.00">outgoingPaymentNotes </text>
<text text-anchor="start" x="538.77" y="-86.2" font-family="Arial" font-size="14.00" fill="#666666">[text]</text>
<polygon fill="none" stroke="black" points="382.35,-43.2 382.35,-74 666.37,-74 666.37,-43.2 382.35,-43.2"/>
<text text-anchor="start" x="389.35" y="-55.4" font-family="Arial" font-size="14.00">type </text>
<text text-anchor="start" x="419.7" y="-55.4" font-family="Arial" font-size="14.00" fill="#666666">[&quot;GroupPolicyType&quot;]</text>
</g>
<!-- public.GroupPolicyPermissions&#45;&gt;public.GroupPolicy -->
<g id="edge1" class="edge">
<title>public.GroupPolicyPermissions:groupPolicyId&#45;&gt;public.GroupPolicy:id</title>
<path fill="none" stroke="black" d="M523.78,-2558.8C355.25,-2504.21 426.89,-1069.42 534.86,-928 571.64,-879.84 629.35,-939.98 666.37,-892 691.94,-858.85 709.24,-797.8 667.37,-797.8"/>
<polygon fill="black" stroke="black" points="523.66,-2558.78 532.83,-2564.79 528.92,-2559.62 533.2,-2560.3 533.2,-2560.3 533.2,-2560.3 528.92,-2559.62 534.24,-2555.9 523.66,-2558.78"/>
<text text-anchor="start" x="7" y="-2570.4" font-family="Arial" font-size="10.00">FOREIGN KEY (&quot;groupPolicyId&quot;) REFERENCES &quot;GroupPolicy&quot;(id) ON UPDATE CASCADE ON DELETE RESTRICT</text>
</g>
<!-- public.Org -->
<g id="node3" class="node">
<title>public.Org</title>
<polygon fill="#efefef" stroke="none" points="770.35,-643.8 770.35,-679.4 1054.37,-679.4 1054.37,-643.8 770.35,-643.8"/>
<polygon fill="none" stroke="black" points="770.35,-643.8 770.35,-679.4 1054.37,-679.4 1054.37,-643.8 770.35,-643.8"/>
<text text-anchor="start" x="811.37" y="-657.2" font-family="Arial Bold" font-size="18.00">public.Org</text>
<text text-anchor="start" x="888.85" y="-657.2" font-family="Arial" font-size="14.00">    </text>
<text text-anchor="start" x="919.97" y="-657.2" font-family="Arial" font-size="14.00" fill="#666666">[BASE TABLE]</text>
<polygon fill="none" stroke="black" points="770.35,-613 770.35,-643.8 1054.37,-643.8 1054.37,-613 770.35,-613"/>
<text text-anchor="start" x="777.35" y="-625.2" font-family="Arial" font-size="14.00">id </text>
<text text-anchor="start" x="792.13" y="-625.2" font-family="Arial" font-size="14.00" fill="#666666">[text]</text>
<polygon fill="none" stroke="black" points="770.35,-582.2 770.35,-613 1054.37,-613 1054.37,-582.2 770.35,-582.2"/>
<text text-anchor="start" x="777.35" y="-594.4" font-family="Arial" font-size="14.00">createdAt </text>
<text text-anchor="start" x="841.16" y="-594.4" font-family="Arial" font-size="14.00" fill="#666666">[timestamp(3) without time zone]</text>
<polygon fill="none" stroke="black" points="770.35,-551.4 770.35,-582.2 1054.37,-582.2 1054.37,-551.4 770.35,-551.4"/>
<text text-anchor="start" x="777.35" y="-563.6" font-family="Arial" font-size="14.00">updatedAt </text>
<text text-anchor="start" x="845.07" y="-563.6" font-family="Arial" font-size="14.00" fill="#666666">[timestamp(3) without time zone]</text>
<polygon fill="none" stroke="black" points="770.35,-520.6 770.35,-551.4 1054.37,-551.4 1054.37,-520.6 770.35,-520.6"/>
<text text-anchor="start" x="777.35" y="-532.8" font-family="Arial" font-size="14.00">name </text>
<text text-anchor="start" x="816.26" y="-532.8" font-family="Arial" font-size="14.00" fill="#666666">[text]</text>
<polygon fill="none" stroke="black" points="770.35,-489.8 770.35,-520.6 1054.37,-520.6 1054.37,-489.8 770.35,-489.8"/>
<text text-anchor="start" x="777.35" y="-502" font-family="Arial" font-size="14.00">namespace </text>
<text text-anchor="start" x="853.62" y="-502" font-family="Arial" font-size="14.00" fill="#666666">[text]</text>
<polygon fill="none" stroke="black" points="770.35,-459 770.35,-489.8 1054.37,-489.8 1054.37,-459 770.35,-459"/>
<text text-anchor="start" x="777.35" y="-471.2" font-family="Arial" font-size="14.00">description </text>
<text text-anchor="start" x="848.94" y="-471.2" font-family="Arial" font-size="14.00" fill="#666666">[text]</text>
<polygon fill="none" stroke="black" points="770.35,-428.2 770.35,-459 1054.37,-459 1054.37,-428.2 770.35,-428.2"/>
<text text-anchor="start" x="777.35" y="-440.4" font-family="Arial" font-size="14.00">website </text>
<text text-anchor="start" x="828.71" y="-440.4" font-family="Arial" font-size="14.00" fill="#666666">[text]</text>
<polygon fill="none" stroke="black" points="770.35,-397.4 770.35,-428.2 1054.37,-428.2 1054.37,-397.4 770.35,-397.4"/>
<text text-anchor="start" x="777.35" y="-409.6" font-family="Arial" font-size="14.00">phoneNumber </text>
<text text-anchor="start" x="869.96" y="-409.6" font-family="Arial" font-size="14.00" fill="#666666">[text]</text>
<polygon fill="none" stroke="black" points="770.35,-366.6 770.35,-397.4 1054.37,-397.4 1054.37,-366.6 770.35,-366.6"/>
<text text-anchor="start" x="777.35" y="-378.8" font-family="Arial" font-size="14.00">ein </text>
<text text-anchor="start" x="799.92" y="-378.8" font-family="Arial" font-size="14.00" fill="#666666">[text]</text>
<polygon fill="none" stroke="black" points="770.35,-335.8 770.35,-366.6 1054.37,-366.6 1054.37,-335.8 770.35,-335.8"/>
<text text-anchor="start" x="777.35" y="-348" font-family="Arial" font-size="14.00">contactEmails </text>
<text text-anchor="start" x="868.38" y="-348" font-family="Arial" font-size="14.00" fill="#666666">[text[]]</text>
<polygon fill="none" stroke="black" points="770.35,-305 770.35,-335.8 1054.37,-335.8 1054.37,-305 770.35,-305"/>
<text text-anchor="start" x="777.35" y="-317.2" font-family="Arial" font-size="14.00">profilePictureFile </text>
<text text-anchor="start" x="885.5" y="-317.2" font-family="Arial" font-size="14.00" fill="#666666">[text]</text>
<polygon fill="none" stroke="black" points="770.35,-274.2 770.35,-305 1054.37,-305 1054.37,-274.2 770.35,-274.2"/>
<text text-anchor="start" x="777.35" y="-286.4" font-family="Arial" font-size="14.00">fax </text>
<text text-anchor="start" x="799.91" y="-286.4" font-family="Arial" font-size="14.00" fill="#666666">[text]</text>
<polygon fill="none" stroke="black" points="770.35,-243.4 770.35,-274.2 1054.37,-274.2 1054.37,-243.4 770.35,-243.4"/>
<text text-anchor="start" x="777.35" y="-255.6" font-family="Arial" font-size="14.00">aggregatorId </text>
<text text-anchor="start" x="860.63" y="-255.6" font-family="Arial" font-size="14.00" fill="#666666">[text]</text>
<polygon fill="none" stroke="black" points="770.35,-212.6 770.35,-243.4 1054.37,-243.4 1054.37,-212.6 770.35,-212.6"/>
<text text-anchor="start" x="777.35" y="-224.8" font-family="Arial" font-size="14.00">bankConnectionId </text>
<text text-anchor="start" x="894.1" y="-224.8" font-family="Arial" font-size="14.00" fill="#666666">[text]</text>
</g>
<!-- public.GroupPolicyPermissions&#45;&gt;public.Org -->
<g id="edge2" class="edge">
<title>public.GroupPolicyPermissions:orgId&#45;&gt;public.Org:id</title>
<path fill="none" stroke="black" d="M913.1,-2529.24C1253.76,-2505.08 1000.96,-1266.21 901.85,-928 860.91,-788.28 623.75,-628.4 769.35,-628.4"/>
<polygon fill="black" stroke="black" points="913.18,-2529.24 903.03,-2525.09 907.85,-2529.43 903.52,-2529.58 903.52,-2529.58 903.52,-2529.58 907.85,-2529.43 903.34,-2534.09 913.18,-2529.24"/>
<text text-anchor="start" x="909.85" y="-2539.6" font-family="Arial" font-size="10.00">FOREIGN KEY (&quot;orgId&quot;) REFERENCES &quot;Org&quot;(id) ON UPDATE CASCADE ON DELETE RESTRICT</text>
</g>
</g>
</svg>
